<svg version="1.2" xmlns="http://www.w3.org/2000/svg" viewBox="0 -1 207 188" width="207" height="188">
	<title>2875019</title>
	<defs>
		<linearGradient id="g1" x2="1" gradientUnits="userSpaceOnUse" gradientTransform="matrix(-90.313,128.981,-353.616,-247.603,358.881,164.331)">
			<stop offset=".007" stop-color="#dd2a2d"/>
			<stop offset="1" stop-color="#ff3b57"/>
		</linearGradient>
		<linearGradient id="g2" x2="1" gradientUnits="userSpaceOnUse" gradientTransform="matrix(90.799,-129.676,381.805,267.341,-163.482,15.262)">
			<stop offset=".007" stop-color="#dd2a2d"/>
			<stop offset="1" stop-color="#ff3b75"/>
		</linearGradient>
		<linearGradient id="g3" x2="1" gradientUnits="userSpaceOnUse" gradientTransform="matrix(61.86,-88.345,103.463,72.445,107.431,145.992)">
			<stop offset=".007" stop-color="#dd2a2d"/>
			<stop offset="1" stop-color="#ff3b75"/>
		</linearGradient>
		<linearGradient id="g4" x2="1" gradientUnits="userSpaceOnUse" gradientTransform="matrix(-107.058,-74.962,108.136,-154.435,186.4,236.807)">
			<stop offset="0" stop-color="#ff6c1a"/>
			<stop offset="1" stop-color="#f81476"/>
		</linearGradient>
		<linearGradient id="g5" x2="1" gradientUnits="userSpaceOnUse" gradientTransform="matrix(74.553,52.202,-124.149,177.304,120.691,-11.649)">
			<stop offset="0" stop-color="#ff6c1a"/>
			<stop offset="1" stop-color="#f81476"/>
		</linearGradient>
		<linearGradient id="g6" x2="1" gradientUnits="userSpaceOnUse" gradientTransform="matrix(-147.274,210.331,-491.816,-344.37,354.755,149.313)">
			<stop offset="0" stop-color="#ff6c1a"/>
			<stop offset="1" stop-color="#f814ff" stop-opacity="0"/>
		</linearGradient>
		<linearGradient id="g7" x2="1" gradientUnits="userSpaceOnUse" gradientTransform="matrix(-107.917,154.123,-440.324,-308.316,362.455,175.246)">
			<stop offset="0" stop-color="#ff6c1a"/>
			<stop offset="1" stop-color="#f814ff" stop-opacity="0"/>
		</linearGradient>
		<linearGradient id="g8" x2="1" gradientUnits="userSpaceOnUse" gradientTransform="matrix(-69.96,99.914,-145.303,-101.741,252.577,158.978)">
			<stop offset="0" stop-color="#ff6c1a"/>
			<stop offset="1" stop-color="#f814ff" stop-opacity="0"/>
		</linearGradient>
		<linearGradient id="g9" x2="1" gradientUnits="userSpaceOnUse" gradientTransform="matrix(34.395,24.083,-60.667,86.642,174.273,75.026)">
			<stop offset="0" stop-color="#ff6c1a"/>
			<stop offset="1" stop-color="#f814ff" stop-opacity="0"/>
		</linearGradient>
	</defs>
	<style>
		.s0 { fill: url(#g1) } 
		.s1 { fill: url(#g2) } 
		.s2 { fill: url(#g3) } 
		.s3 { fill: url(#g4) } 
		.s4 { fill: url(#g5) } 
		.s5 { mix-blend-mode: screen;fill: url(#g6) } 
		.s6 { fill: url(#g7) } 
		.s7 { mix-blend-mode: screen;fill: url(#g8) } 
		.s8 { fill: url(#g9) } 
	</style>
	<g id="OBJECTS">
		<g id="&lt;Group&gt;">
			<path id="&lt;Path&gt;" fill-rule="evenodd" class="s0" d="m108.2 14.3c13.5 21.3-1.7 52.8-42.2 67.9-29.9 11.1-50.6 18.8-61.4 43.5-11 24.8 2.1 47.1 15.9 56.8 24.6-2.9 98.1-78.2 114.1-124.9 16.1-46.6-5.8-48.7-26.4-43.3z"/>
			<path id="&lt;Path&gt;" fill-rule="evenodd" class="s1" d="m93.7 185.6c-18.4-8.1-20.5-21.4-11.5-35 19-28.7 48.7-37.3 66.4-57.5 28.4-32.3 24.5-70.4-5.6-89.1-1.2 8 9.3 71.1-15.5 83.5-28.6 14.3-73.5 45.3-73.4 65.2 0.2 19.8 3.2 28.5 39.6 32.9z"/>
			<path id="&lt;Path&gt;" fill-rule="evenodd" class="s2" d="m183.7 184c12.3-0.3 20.8-11.8 19.3-25.1-5 11.3-32.9 2.9-24.4-23 7.5-22.6 5.4-45.4-4-60.7 0.5 2.8 7.9 25.9-8.8 57.7-12.9 24.8-14.6 51.8 17.9 51.1z"/>
			<path id="&lt;Path&gt;" fill-rule="evenodd" class="s3" d="m186.3 183.8c-15.8 1.1-29.6-16.8-22.4-37.9 10.2-29.6 22-45.2 10.7-70.7q-0.4 1.9-1 3.6c-1.9 5.5-5.2 10.3-9.1 14.5-17.4 18.8-39.2 29.9-56.4 50.6-16.1 19.5-6.9 39.8 9 41.4 0 0 68.3-1.4 69.2-1.5z"/>
			<path id="&lt;Path&gt;" fill-rule="evenodd" class="s4" d="m34 186.4l59.7-0.8c-8.9-1-40.2-16.5-20.5-46.1 10.3-15.5 48.6-35.5 55.5-40.6 32.8-24.4 39-58.7 25-83.4-9.6-17.1-31.1-21.9-42.3-5.9l-3.2 4.7c3.8 0.6 18.4 4.7 18.1 22.2-1 49.4-94.3 59.1-111.3 105.4-6.8 18.6-4.8 29.8 1.9 37.3 4 4.5 9.8 7.3 17.1 7.2z"/>
			<path id="&lt;Path&gt;" fill-rule="evenodd" class="s5" d="m136.3 63.7c-27.3 39.8-83.2 48.5-100.3 85.8-17.2 37.3 32 36.4 32 36.4l25.7-0.3c-8.9-1-40.2-16.5-20.5-46.1 10.3-15.5 48.6-35.5 55.5-40.6 32.8-24.4 39-58.7 25-83.4-9.6-17.1-31.1-21.9-42.3-5.9l-3.2 4.7c25.9-15.4 47.4 21.3 28.1 49.4z"/>
			<g id="&lt;Group&gt;" style="mix-blend-mode: screen">
				<path id="&lt;Path&gt;" fill-rule="evenodd" class="s6" d="m111.4 9.6l-3.2 4.7-0.1-0.1c2.5-1.4 5.2-2.6 8-3.2 2.8-0.6 5.7-0.7 8.6 0 5.6 1.2 10.5 5.1 13.7 9.9 3.2 4.8 4.9 10.5 5.5 16.2 0.2 2.9 0.1 5.8-0.3 8.6-0.3 2.9-1 5.7-2 8.4-1 2.7-2.3 5.3-3.7 7.8l-1.2 1.8c-0.4 0.6-0.8 1.2-1.3 1.8-0.8 1.2-1.6 2.3-2.5 3.4-3.6 4.6-7.6 8.7-11.9 12.5-8.5 7.7-18.1 14.1-27.9 20.2-9.7 6-19.7 11.6-29.1 18.1-4.7 3.3-9.2 6.7-13.4 10.6-4.1 4-7.9 8.3-11 13.1-2.9 4.8-5.3 10.1-6.5 15.6-0.5 2.8-0.6 5.7-0.1 8.5 0.5 2.7 1.8 5.3 3.6 7.5 1.8 2.2 4.1 3.9 6.6 5.3 2.5 1.4 5.1 2.4 7.9 3.2 2.7 0.8 5.5 1.4 8.4 1.8 2.8 0.4 5.7 0.6 8.5 0.6-2.8 0.1-5.7-0.2-8.5-0.5-2.9-0.4-5.7-0.9-8.5-1.7-2.7-0.7-5.5-1.7-8-3.1-2.5-1.3-4.9-3.1-6.8-5.3-1.9-2.2-3.2-4.9-3.7-7.7-0.6-2.9-0.5-5.8 0-8.7 1.2-5.6 3.6-11 6.6-15.9 3-4.9 6.8-9.2 11-13.2 4.2-3.9 8.7-7.5 13.4-10.8 9.4-6.6 19.4-12.3 29.1-18.3 9.7-6 19.3-12.3 27.9-19.9 4.2-3.8 8.2-7.9 11.8-12.3 0.9-1.1 1.7-2.3 2.5-3.4 0.5-0.6 0.9-1.2 1.3-1.8l1.1-1.8c1.5-2.4 2.8-4.9 3.7-7.6 1-2.7 1.7-5.4 2.1-8.3 0.4-2.8 0.5-5.6 0.3-8.5-0.5-5.6-2.2-11.2-5.4-15.9-1.5-2.4-3.5-4.5-5.7-6.3-2.3-1.7-4.9-3-7.6-3.6-2.8-0.7-5.7-0.7-8.5-0.1-2.8 0.6-5.4 1.7-7.9 3.1l-0.2 0.1 0.1-0.2z"/>
			</g>
			<path id="&lt;Path&gt;" fill-rule="evenodd" class="s7" d="m148.6 184.6c18.1-0.3 37.2-0.7 37.7-0.8-15.8 1.1-29.6-16.8-22.4-37.9 10.2-29.6 22-45.2 10.7-70.7 2.7 21.4-0.4 31.1-17.5 55.5-17.1 24.4-24.6 34.6-8.5 53.9z"/>
			<g id="&lt;Group&gt;" style="mix-blend-mode: screen">
				<path id="&lt;Path&gt;" fill-rule="evenodd" class="s8" d="m174.6 75.2c0.7 5 1.2 10.1 1 15.1-0.2 5.1-1.3 10.1-3.1 14.9-1.8 4.8-4.3 9.2-6.9 13.5-2.6 4.4-5.5 8.5-8.3 12.7-2.9 4.1-5.9 8.2-8.6 12.4-2.7 4.3-5.4 8.6-7.1 13.3-0.8 2.3-1.4 4.7-1.5 7.2-0.1 2.5 0.2 5 1 7.4 1.5 4.8 4.4 9 7.5 12.9-3.3-3.8-6.3-7.9-8-12.8-0.9-2.4-1.2-4.9-1.2-7.5 0.1-2.6 0.7-5.1 1.5-7.5 0.8-2.4 1.9-4.7 3.1-6.9 1.2-2.3 2.6-4.4 3.9-6.6 2.8-4.2 5.7-8.3 8.6-12.5 5.7-8.2 11.5-16.6 15.3-25.9 1.9-4.6 3-9.6 3.3-14.6 0.4-5 0-10-0.5-15.1z"/>
			</g>
		</g>
	</g>
</svg>